<svg width="18" height="19" viewBox="0 0 18 19" fill="none" xmlns="http://www.w3.org/2000/svg">
    <path fill-rule="evenodd" clip-rule="evenodd" d="M3.51219 3.19506H17.561L14.9268 11.0975H3.51219C3.02726 11.0975 2.63415 11.4906 2.63415 11.9755C2.63415 12.4605 3.02726 12.8536 3.51219 12.8536H14.9268V14.6097H3.51219C2.0574 14.6097 0.878049 13.4303 0.878049 11.9755C0.878049 10.5208 2.0574 9.3414 3.51219 9.3414H3.80195L2.63415 5.82921L1.7561 3.19506H0V1.43896H2.63415C3.11908 1.43896 3.51219 1.83208 3.51219 2.31701V3.19506ZM4.3903 19C3.42043 19 2.6342 18.2138 2.6342 17.2439C2.6342 16.274 3.42043 15.4878 4.3903 15.4878C5.36016 15.4878 6.1464 16.274 6.1464 17.2439C6.1464 18.2138 5.36016 19 4.3903 19ZM11.4146 17.2439C11.4146 18.2138 12.2009 19 13.1707 19C14.1406 19 14.9268 18.2138 14.9268 17.2439C14.9268 16.274 14.1406 15.4878 13.1707 15.4878C12.2009 15.4878 11.4146 16.274 11.4146 17.2439Z" fill="#289767"/>
    <path d="M9.63574 1.43902H16.73" stroke="#FBB448" stroke-width="2" stroke-linecap="round"/>
</svg>
