<svg width="18" height="18" viewBox="0 0 20 18" fill="none" xmlns="http://www.w3.org/2000/svg">
    <path d="M8.70605 1C8.70605 0.447715 9.15377 0 9.70605 0H17.6088C18.7133 0 19.6088 0.895431 19.6088 2V6.52907C19.6088 7.08135 19.1611 7.52907 18.6088 7.52907H10.7061C9.60149 7.52907 8.70605 6.63364 8.70605 5.52907V1Z" fill="#FBB448"/>
    <path fill-rule="evenodd" clip-rule="evenodd" d="M5.22384 18.0001L8.7064 14.5176H15.6715C16.6332 14.5176 17.4128 13.738 17.4128 12.7763V4.06989C17.4128 3.10821 16.6332 2.32861 15.6715 2.32861H1.74128C0.783576 2.32861 0 3.11219 0 4.06989V12.7763C0 13.738 0.779598 14.5176 1.74128 14.5176H5.22384V18.0001ZM4.35325 9.29375V7.55247H6.09453V9.29375H4.35325ZM7.83579 7.55247V9.29375H9.57708V7.55247H7.83579ZM11.3183 9.29375V7.55247H13.0596V9.29375H11.3183Z" fill="#289767"/>
</svg>
