<svg width="18" height="15" viewBox="0 0 18 15" fill="none" xmlns="http://www.w3.org/2000/svg">
<path fill-rule="evenodd" clip-rule="evenodd" d="M8.99994 15C8.76059 15 8.53204 14.9074 8.36287 14.7406L1.37402 7.87588C-0.458006 6.07588 -0.458006 3.14735 1.37402 1.34735C2.25853 0.479118 3.43999 0 4.69883 0C5.95767 0 7.13913 0.479118 8.02364 1.34735L8.99994 2.30647L9.97534 1.34824C10.8608 0.479118 12.0422 0 13.3011 0C14.5599 0 15.7414 0.479118 16.6259 1.34735C18.4579 3.14735 18.4579 6.07588 16.6268 7.87588L9.63701 14.7415C9.46785 14.9074 9.23929 15 8.99994 15Z" fill="#FF0C20"/>
</svg>
